#!OML:ASF E:\id_vita\Project 1\Capture day 1\Session 1\Female.ASF
:FULLY-SPECIFIED
:DEGREES
572
root -16.9968 16.4111 -1.41771 357.195 -104.001 -345.45
lowerback -17.149 -3.76979 -4.13815
upperback -4.75817 -4.82309 3.91083
thorax 5.15155 -2.55817 5.46926
lowerneck 16.5489 -10.7022 -6.35137
upperneck -16.6221 -15.2843 5.14939
head -6.87307 -7.46821 4.17808
rclavicle -2.33572e-015 1.98785e-015
rhumerus -38.1943 -19.5204 -74.0633
rradius 29.1268
rwrist 7.50097
rhand -10.8554 9.10346
rfingers 7.12502
rthumb 15.1598 -20.3212
lclavicle -2.33572e-015 1.98785e-015
lhumerus -125.572 45.6251 -34.3202
lradius 11.4891
lwrist -113.212
lhand -4.79945 23.2935
lfingers 7.12502
lthumb 20.9861 52.1781
rfemur -20.897 0.00866501 32.1588
rtibia 20.7411
rfoot -9.28821 -0.947526
rtoes 1.21869
lfemur -22.5171 10.6768 -15.2131
ltibia 68.0271
lfoot -7.91373 0.0651635
ltoes -10.6408
573
root -17.0792 16.4031 -1.43204 358.951 -105.062 -347.151
lowerback -17.0231 -3.5432 -4.3841
upperback -4.89691 -4.49458 3.88529
thorax 4.90673 -2.39446 5.66843
lowerneck 16.9941 -10.6463 -6.69697
upperneck -16.8758 -15.2845 5.36985
head -6.98398 -7.46086 4.33859
rclavicle -3.95085e-014 -4.53229e-014
rhumerus -37.7239 -18.3617 -74.8221
rradius 29.5104
rwrist 7.14106
rhand -11.3475 9.11873
rfingers 7.12502
rthumb 14.6857 -20.3412
lclavicle -3.95085e-014 -4.53229e-014
lhumerus -127.811 42.9638 -37.8261
lradius 11.595
lwrist -116.525
lhand -4.95467 23.398
lfingers 7.12502
lthumb 20.837 52.2991
rfemur -20.665 0.597628 31.7752
rtibia 21.1396
rfoot -9.84391 -0.714411
rtoes 1.6683
lfemur -23.309 11.0177 -15.4636
ltibia 68.1605
lfoot -8.79962 0.106634
ltoes -10.2409
574
root -17.14 16.4119 -1.43828 360.307 -105.904 -348.535
lowerback -17.3267 -3.35694 -4.40599
upperback -4.44032 -4.19499 3.64061
thorax 5.50207 -2.25704 5.46237
lowerneck 16.8242 -10.6759 -6.50448
upperneck -17.4429 -15.2666 5.55902
head -7.13967 -7.47231 4.39165
rclavicle 3.42158e-014 -4.37326e-015
rhumerus -36.1764 -18.0371 -75.9917
rradius 29.5773
rwrist 7.13707
rhand -11.7141 9.28967
rfingers 7.12502
rthumb 14.3325 -20.1956
lclavicle 3.42158e-014 -4.37326e-015
lhumerus -129.662 41.7066 -40.6712
lradius 11.7321
lwrist -119.009
lhand -5.14808 23.5775
lfingers 7.12502
lthumb 20.6511 52.4988
rfemur -20.6583 0.982643 31.4917
rtibia 21.6129
rfoot -10.2192 -0.394279
rtoes 2.94597
lfemur -24.1825 10.9903 -15.6637
ltibia 68.115
lfoot -9.43747 0.0430671
ltoes -9.71354
575
root -17.1196 16.3809 -1.43363 360.364 -106.321 -348.557
lowerback -16.4972 -3.29824 -4.44108
upperback -4.23337 -4.10889 3.52816
thorax 5.2627 -2.20417 5.40949
lowerneck 16.4948 -10.6941 -6.11689
upperneck -17.9396 -15.2038 5.61294
head -7.2762 -7.4649 4.35827
rclavicle 5.25288e-014 9.74045e-015
rhumerus -34.7671 -17.7094 -77.2411
rradius 30.0114
rwrist 7.18589
rhand -11.7717 8.81922
rfingers 7.12502
rthumb 14.277 -20.67
lclavicle 5.25288e-014 9.74045e-015
lhumerus -130.614 41.118 -42.2244
lradius 11.8639
lwrist -120.273
lhand -5.49874 23.8184
lfingers 7.12502
lthumb 20.3142 52.776
rfemur -20.9722 2.53943 31.3659
rtibia 22.1035
rfoot -9.79304 -1.36293
rtoes 1.47215
lfemur -25.9406 10.6055 -15.3871
ltibia 68.3161
lfoot -9.69307 -0.362688
ltoes -8.98419
576
root -17.2126 16.3947 -1.43849 361.876 -107.57 -350.256
lowerback -15.9844 -3.03822 -4.55369
upperback -4.50373 -3.76997 3.41019
thorax 4.65148 -2.02287 5.44684
lowerneck 16.8963 -10.537 -6.26745
upperneck -18.0019 -15.0641 5.51854
head -7.37136 -7.37231 4.37181
rclavicle -6.98977e-014 -2.38542e-015
rhumerus -34.8419 -16.4069 -77.9029
rradius 30.7468
rwrist 6.83454
rhand -11.9448 8.41554
rfingers 7.12502
rthumb 14.1102 -21.0854
lclavicle -6.98977e-014 -2.38542e-015
lhumerus -130.178 39.6877 -42.1985
lradius 11.9548
lwrist -120.971
lhand -5.72679 23.9998
lfingers 7.12502
lthumb 20.095 52.9806
rfemur -20.6575 2.68369 30.9499
rtibia 22.6232
rfoot -10.5693 -0.58943
rtoes -0.83901
lfemur -26.1814 10.7321 -15.762
ltibia 67.9591
lfoot -10.633 -0.131121
ltoes -9.47158
577
root -17.2894 16.3998 -1.44305 363.041 -108.604 -351.573
lowerback -16.0516 -2.83944 -4.61625
upperback -4.27812 -3.46954 3.20589
thorax 4.8798 -1.87867 5.3204
lowerneck 16.9818 -10.4779 -6.37971
upperneck -18.3461 -14.9968 5.72039
head -7.47714 -7.34727 4.47187
rclavicle -4.85532e-014 -3.57812e-015
rhumerus -34.0621 -15.303 -78.9553
rradius 31.3674
rwrist 6.31557
rhand -12.3363 8.47041
rfingers 7.12502
rthumb 13.7329 -21.0564
lclavicle -4.85532e-014 -3.57812e-015
lhumerus -130.559 38.7902 -43.0845
lradius 12.0282
lwrist -122.286
lhand -5.86617 24.1056
lfingers 7.12502
lthumb 19.961 53.1004
rfemur -20.4299 2.69876 30.6204
rtibia 23.0534
rfoot -11.1822 0.0810344
rtoes -0.322174
lfemur -26.5974 10.7923 -16.0124
ltibia 67.5723
lfoot -11.5535 0.0492505
ltoes -11.3246
578
root -17.3578 16.3924 -1.44723 363.039 -109.593 -351.863
lowerback -14.9853 -2.68654 -4.59768
upperback -4.66057 -3.32947 3.27895
thorax 3.88379 -1.78356 5.45918
lowerneck 17.4915 -10.3576 -6.76785
upperneck -18.1128 -14.9688 5.57192
head -7.47282 -7.29309 4.49858
rclavicle -5.09883e-014 1.47101e-014
rhumerus -34.3196 -13.3741 -79.7145
rradius 32.2183
rwrist 5.55788
rhand -12.7452 8.32181
rfingers 7.12502
rthumb 13.3388 -21.2313
lclavicle -5.09883e-014 1.47101e-014
lhumerus -128.82 38.2865 -41.0544
lradius 11.9899
lwrist -121.113
lhand -5.71017 24.1851
lfingers 7.12502
lthumb 20.111 53.1642
rfemur -19.9446 2.89873 30.5577
rtibia 23.3854
rfoot -11.618 0.568755
rtoes 1.1249
lfemur -26.8644 10.9807 -15.8331
ltibia 67.0348
lfoot -12.3847 0.0233563
ltoes -12.8945
579
root -17.4271 16.3901 -1.45397 363.813 -110.663 -352.739
lowerback -16.2296 -2.33269 -4.32113
upperback -3.57608 -2.77428 2.77691
thorax 5.60342 -1.5447 4.82437
lowerneck 16.8824 -10.5452 -6.45049
upperneck -18.7566 -15.0682 6.04205
head -7.55616 -7.4073 4.60567
rclavicle 7.02083e-014 -1.91827e-014
rhumerus -32.2612 -13.342 -81.1315
rradius 32.5663
rwrist 5.25739
rhand -13.3882 8.05181
rfingers 7.12502
rthumb 12.7189 -21.5408
lclavicle 7.02083e-014 -1.91827e-014
lhumerus -130.842 38.1023 -44.2358
lradius 12.0385
lwrist -123.895
lhand -5.70141 24.1527
lfingers 7.12502
lthumb 20.1194 53.1309
rfemur -19.72 3.24859 30.2444
rtibia 23.692
rfoot -11.9977 0.994607
rtoes 1.35301
lfemur -27.3418 11.0502 -15.91
ltibia 66.4271
lfoot -12.9126 -0.0272729
ltoes -13.018
580
root -17.487 16.3915 -1.43392 363.094 -111.608 -352.189
lowerback -15.8062 -2.02602 -3.5445
upperback -3.43498 -2.49443 2.67743
thorax 5.45806 -1.3905 4.34066
lowerneck 16.9594 -10.4641 -6.37769
upperneck -19.0124 -14.9989 5.85548
head -7.68207 -7.35312 4.55509
rclavicle 4.43166e-014 -7.7526e-015
rhumerus -31.587 -12.3176 -81.99
rradius 33.0772
rwrist 4.86218
rhand -13.9049 7.82391
rfingers 7.12502
rthumb 12.2208 -21.7991
lclavicle 4.43166e-014 -7.7526e-015
lhumerus -130.773 37.7287 -44.3865
lradius 12.1071
lwrist -124.613
lhand -5.62918 24.185
lfingers 7.12502
lthumb 20.1888 53.1559
rfemur -19.3102 2.94724 30.4875
rtibia 23.8684
rfoot -12.5682 1.83059
rtoes 0.820852
lfemur -27.6787 10.6911 -15.4491
ltibia 65.8101
lfoot -13.3632 0.221263
ltoes -12.7853
581
root -17.5498 16.3947 -1.44454 364.188 -112.537 -353.373
lowerback -15.7149 -1.93197 -3.9008
upperback -3.37195 -2.29961 2.52733
thorax 5.46154 -1.29774 4.42593
lowerneck 16.9045 -10.4625 -6.23476
upperneck -19.1922 -15.0191 5.63691
head -7.76241 -7.34581 4.47735
rclavicle 1.57164e-014 7.55382e-015
rhumerus -31.0904 -11.2695 -82.7621
rradius 33.662
rwrist 4.69588
rhand -13.9082 7.83141
rfingers 7.12502
rthumb 12.2176 -21.7917
lclavicle 1.57164e-014 7.55382e-015
lhumerus -130.319 37.59 -43.9769
lradius 12.1387
lwrist -124.792
lhand -5.16191 24.274
lfingers 7.12502
lthumb 20.6378 53.1968
rfemur -19.0839 3.29029 29.9956
rtibia 24.0324
rfoot -12.9271 2.07966
rtoes 0.207791
lfemur -28.1484 10.1973 -15.6316
ltibia 65.0558
lfoot -13.8041 0.605651
ltoes -12.9481
582
root -17.6142 16.3913 -1.4503 364.163 -113.423 -353.57
lowerback -15.3809 -1.80108 -3.81587
upperback -3.27636 -2.13786 2.45552
thorax 5.35915 -1.21265 4.33921
lowerneck 16.9165 -10.3545 -6.34751
upperneck -19.3541 -14.9058 5.67442
head -7.81406 -7.28605 4.50703
rclavicle -1.40392e-015 7.45443e-015
rhumerus -30.656 -10.5714 -83.4098
rradius 34.0947
rwrist 4.8806
rhand -13.6382 7.96314
rfingers 7.12502
rthumb 12.478 -21.6443
lclavicle -1.40392e-015 7.45443e-015
lhumerus -129.873 37.518 -43.5814
lradius 12.1528
lwrist -124.857
lhand -4.75579 24.2818
lfingers 7.12502
lthumb 21.028 53.1618
rfemur -18.5514 3.58505 29.8802
rtibia 24.0984
rfoot -13.3393 2.41765
rtoes -0.129803
lfemur -28.4024 9.90938 -15.3328
ltibia 64.2929
lfoot -14.3008 0.580091
ltoes -12.9374
